<?xml version="1.0" standalone="no"?><!DOCTYPE svg PUBLIC "-//W3C//DTD SVG 1.1//EN" "http://www.w3.org/Graphics/SVG/1.1/DTD/svg11.dtd"><svg t="1555382706216" class="icon" style="" viewBox="0 0 1026 1024" version="1.1" xmlns="http://www.w3.org/2000/svg" p-id="8782" xmlns:xlink="http://www.w3.org/1999/xlink" width="32.0625" height="32"><defs><style type="text/css"></style></defs><path d="M512.666454-1.4e-05C229.535322-1.4e-05-1.4e-05 229.221444-1.4e-05 511.994267S229.535322 1024.000014 512.666454 1024.000014c283.136865 0 512.677934-229.227191 512.677934-512.005747C1025.344388 229.227177 795.803319-1.4e-05 512.666454-1.4e-05L512.666454-1.4e-05zM512.666454 977.117488c-257.21539 0-465.728046-208.248941-465.728046-465.117488 0-256.884313 208.512656-465.123221 465.728046-465.123221 257.209657 0 465.728046 208.238908 465.728046 465.123221C978.3902 768.868547 769.876111 977.117488 512.666454 977.117488L512.666454 977.117488zM512.666454 977.117488" p-id="8783" fill="#007fff"></path><path d="M646.617963 652.759372c51.305487-40.404308 84.364469-102.940619 84.364469-173.326754 0-121.88081-98.808604-220.683681-220.689414-220.683681S289.597871 357.551808 289.597871 479.432617c0 70.386135 33.064715 132.922447 84.364469 173.326754C281.977364 699.641898 217.229572 792.258931 210.074867 900.759065l40.192189 0c7.738032-101.597678 73.784334-186.757593 164.687218-222.509622 28.878237 13.856509 61.148941 21.885487 95.338744 21.885487 34.20127 0 66.437575-8.028978 95.337311-21.885487 90.904317 35.752029 156.956352 120.907644 164.700117 222.509622l40.180723 0C803.383695 792.258931 738.614405 699.641898 646.617963 652.759372L646.617963 652.759372 646.617963 652.759372zM510.304484 660.004371c-99.738773 0-180.566021-80.821514-180.566021-180.560288S410.56571 298.885229 510.304484 298.885229c99.733041 0 180.553121 80.820081 180.553121 180.558854C690.851872 579.182857 610.026058 660.004371 510.304484 660.004371L510.304484 660.004371 510.304484 660.004371zM510.304484 660.004371" p-id="8784" fill="#007fff"></path></svg>